<svg xmlns="http://www.w3.org/2000/svg" version="1.1" xmlns:xlink="http://www.w3.org/1999/xlink" xmlns:svgjs="http://svgjs.dev/svgjs" width="1500" height="500" viewBox="0 0 1500 500"><g transform="matrix(1,0,0,1,-0.9090909090909918,-0.3411320743939541)"><svg viewBox="0 0 396 132" data-background-color="#ede1d1" preserveAspectRatio="xMidYMid meet" height="500" width="1500" xmlns="http://www.w3.org/2000/svg" xmlns:xlink="http://www.w3.org/1999/xlink"><g id="tight-bounds" transform="matrix(1,0,0,1,0.2400000000000091,0.09005886764001048)"><svg viewBox="0 0 395.52 131.81988226471995" height="131.81988226471995" width="395.52"><g><svg viewBox="0 0 625.3591496318207 208.4212416" height="131.81988226471995" width="395.52"><g transform="matrix(1,0,0,1,229.83914963182073,58.848305207096175)"><svg viewBox="0 0 395.52 90.72463118580765" height="90.72463118580765" width="395.52"><g id="textblocktransform"><svg viewBox="0 0 395.52 90.72463118580765" height="90.72463118580765" width="395.52" id="textblock"><g><svg viewBox="0 0 395.52 90.72463118580765" height="90.72463118580765" width="395.52"><g transform="matrix(1,0,0,1,0,0)"><svg width="395.52" viewBox="1.4 -36.85 160.64 36.85" height="90.72463118580765" data-palette-color="#6a704c"><path d="M9.45 0L5 0 5-25.35 9.45-25.35 9.45 0ZM6.5 0L1.4 0 1.4-2.05Q1.4-2.5 1.6-2.78 1.8-3.05 2.2-3.1L2.2-3.1 5.95-3.9 6.5 0ZM13.05 0L7.95 0 8.5-3.9 12.25-3.1Q12.65-3.05 12.85-2.78 13.05-2.5 13.05-2.05L13.05-2.05 13.05 0ZM1.4-25.35L6.5-25.35 5.95-21.45 2.2-22.25Q1.8-22.35 1.6-22.6 1.4-22.85 1.4-23.3L1.4-23.3 1.4-25.35ZM7.15-30.15L7.15-30.15Q5.9-30.15 4.95-31.1 4-32.05 4-33.3L4-33.3Q4-34.6 4.95-35.55 5.9-36.5 7.15-36.5L7.15-36.5Q8.45-36.5 9.4-35.55 10.35-34.6 10.35-33.3L10.35-33.3Q10.35-32.05 9.4-31.1 8.45-30.15 7.15-30.15ZM35 0L15.7 0 15.7-1.85Q15.7-2.2 15.87-2.63 16.05-3.05 16.35-3.45L16.35-3.45 30.1-21.85 16.45-21.85 16.45-25.35 35.3-25.35 35.3-23.45Q35.3-22.95 35.1-22.55 34.9-22.15 34.65-21.75L34.65-21.75 20.95-3.5 35-3.5 35 0ZM16.45-21.85L19.65-22.5 19.15-18.75Q19.1-18.4 18.87-18.18 18.65-17.95 18.1-17.95L18.1-17.95 16.45-17.95 16.45-21.85ZM35-3.5L31.8-2.85 32.3-6.6Q32.35-6.95 32.6-7.18 32.85-7.4 33.35-7.4L33.35-7.4 35-7.4 35-3.5ZM46.75 0L42.3 0 42.3-36.85 46.75-36.85 46.75-21.95Q48.4-23.65 50.37-24.7 52.34-25.75 54.9-25.75L54.9-25.75Q57.7-25.75 59.57-24.55 61.45-23.35 62.42-21.18 63.4-19 63.4-16.15L63.4-16.15 63.4 0 58.95 0 58.95-16.15Q58.95-19 57.62-20.6 56.3-22.2 53.59-22.2L53.59-22.2Q51.65-22.2 49.92-21.25 48.2-20.3 46.75-18.65L46.75-18.65 46.75 0ZM67 0L61.9 0 62.45-3.9 66.2-3.1Q66.59-3.05 66.8-2.78 67-2.5 67-2.05L67-2.05 67 0ZM43.8 0L38.7 0 38.7-2.05Q38.7-2.5 38.9-2.78 39.09-3.05 39.5-3.1L39.5-3.1 43.25-3.9 43.8 0ZM38.7-36.85L43.8-36.85 43.25-32.95 39.5-33.75Q39.09-33.85 38.9-34.1 38.7-34.35 38.7-34.8L38.7-34.8 38.7-36.85ZM50.34 0L45.25 0 45.8-3.9 49.55-3.1Q49.95-3.05 50.15-2.78 50.34-2.5 50.34-2.05L50.34-2.05 50.34 0ZM77.09 0L72.64 0 72.64-25.35 75.19-25.35Q75.94-25.35 76.24-25.08 76.54-24.8 76.59-24.1L76.59-24.1 76.89-20.15Q78.19-22.8 80.09-24.3 81.99-25.8 84.59-25.8L84.59-25.8Q85.64-25.8 86.49-25.55 87.34-25.3 88.04-24.9L88.04-24.9 87.49-21.55Q87.44-21.25 87.22-21.1 86.99-20.95 86.69-20.95L86.69-20.95Q86.34-20.95 85.34-21.18 84.34-21.4 83.59-21.4L83.59-21.4Q81.29-21.4 79.72-20.05 78.14-18.7 77.09-16.15L77.09-16.15 77.09 0ZM80.69 0L75.59 0 76.14-3.9 79.89-3.1Q80.29-3.05 80.49-2.78 80.69-2.5 80.69-2.05L80.69-2.05 80.69 0ZM74.14 0L69.04 0 69.04-2.05Q69.04-2.5 69.24-2.78 69.44-3.05 69.84-3.1L69.84-3.1 73.59-3.9 74.14 0ZM69.04-25.35L74.14-25.35 73.59-21.45 69.84-22.25Q69.44-22.35 69.24-22.6 69.04-22.85 69.04-23.3L69.04-23.3 69.04-25.35ZM98.19 0L93.74 0 93.74-25.35 96.39-25.35Q97.39-25.35 97.59-24.4L97.59-24.4 97.94-21.8Q99.34-23.55 101.07-24.65 102.79-25.75 105.09-25.75L105.09-25.75Q107.69-25.75 109.27-24.33 110.84-22.9 111.54-20.45L111.54-20.45Q112.59-23.15 114.82-24.45 117.04-25.75 119.64-25.75L119.64-25.75Q123.69-25.75 125.89-23.18 128.09-20.6 128.09-16.15L128.09-16.15 128.09 0 123.64 0 123.64-16.15Q123.64-19.1 122.34-20.65 121.04-22.2 118.54-22.2L118.54-22.2Q116.24-22.2 114.67-20.58 113.09-18.95 113.09-16.15L113.09-16.15 113.09 0 108.64 0 108.64-16.15Q108.64-19.2 107.42-20.7 106.19-22.2 103.84-22.2L103.84-22.2Q102.19-22.2 100.79-21.3 99.39-20.4 98.19-18.9L98.19-18.9 98.19 0ZM95.24 0L90.14 0 90.14-2.05Q90.14-2.5 90.34-2.78 90.54-3.05 90.94-3.1L90.94-3.1 94.69-3.9 95.24 0ZM101.79 0L96.69 0 97.24-3.9 100.99-3.1Q101.39-3.05 101.59-2.78 101.79-2.5 101.79-2.05L101.79-2.05 101.79 0ZM116.69 0L111.59 0 112.14-3.9 115.89-3.1Q116.29-3.05 116.49-2.78 116.69-2.5 116.69-2.05L116.69-2.05 116.69 0ZM90.14-25.35L95.24-25.35 94.69-21.45 90.94-22.25Q90.54-22.35 90.34-22.6 90.14-22.85 90.14-23.3L90.14-23.3 90.14-25.35ZM131.69 0L126.59 0 127.14-3.9 130.89-3.1Q131.29-3.05 131.49-2.78 131.69-2.5 131.69-2.05L131.69-2.05 131.69 0ZM141.79 0L137.34 0 137.34-25.35 139.99-25.35Q140.99-25.35 141.19-24.4L141.19-24.4 141.54-21.65Q143.19-23.5 145.24-24.63 147.29-25.75 149.94-25.75L149.94-25.75Q152.74-25.75 154.61-24.55 156.49-23.35 157.46-21.18 158.44-19 158.44-16.15L158.44-16.15 158.44 0 153.99 0 153.99-16.15Q153.99-19 152.66-20.6 151.34-22.2 148.64-22.2L148.64-22.2Q146.69-22.2 144.96-21.25 143.24-20.3 141.79-18.65L141.79-18.65 141.79 0ZM138.84 0L133.74 0 133.74-2.05Q133.74-2.5 133.94-2.78 134.14-3.05 134.54-3.1L134.54-3.1 138.29-3.9 138.84 0ZM145.39 0L140.29 0 140.84-3.9 144.59-3.1Q144.99-3.05 145.19-2.78 145.39-2.5 145.39-2.05L145.39-2.05 145.39 0ZM162.04 0L156.94 0 157.49-3.9 161.24-3.1Q161.64-3.05 161.84-2.78 162.04-2.5 162.04-2.05L162.04-2.05 162.04 0ZM133.74-25.35L138.84-25.35 138.29-21.45 134.54-22.25Q134.14-22.35 133.94-22.6 133.74-22.85 133.74-23.3L133.74-23.3 133.74-25.35Z" opacity="1" transform="matrix(1,0,0,1,0,0)" fill="#6a704c" class="wordmark-text-0" data-fill-palette-color="primary" id="text-0"></path></svg></g></svg></g></svg></g></svg></g><g><svg viewBox="0 0 208.4212416 208.4212416" height="208.4212416" width="208.4212416"><g><svg></svg></g><g id="icon-0"><svg viewBox="0 0 208.4212416 208.4212416" height="208.4212416" width="208.4212416"><g><rect width="189.50894375111113" height="189.50894375111113" x="9.456148924444435" y="9.456148924444435" fill="#412e27" data-fill-palette-color="accent"></rect><rect width="189.50894375111113" height="189.50894375111113" x="18.912297848888876" y="-8.881784197001252e-15" fill="#412e27" opacity="0.5" data-fill-palette-color="accent"></rect></g><g transform="matrix(1,0,0,1,27.017568355555554,36.495804309456645)"><svg viewBox="0 0 154.3861048888889 135.4296329810867" height="135.4296329810867" width="154.3861048888889"><g><svg xmlns="http://www.w3.org/2000/svg" xmlns:xlink="http://www.w3.org/1999/xlink" version="1.1" x="0" y="0" viewBox="4.75 10.169 86.5 75.879" enable-background="new 0 0 96 96" xml:space="preserve" height="135.4296329810867" width="154.3861048888889" class="icon-dxe-0" data-fill-palette-color="quaternary" id="dxe-0"><polygon points="6.031,38.033 19.963,24.101 6.031,10.169 4.97,11.23 17.842,24.101 4.97,36.973 " fill="#ede1d1" data-fill-palette-color="quaternary"></polygon><rect x="27.419" y="16.534" width="12.033" height="1.5" fill="#ede1d1" data-fill-palette-color="quaternary"></rect><rect x="46.94" y="16.534" width="17.917" height="1.5" fill="#ede1d1" data-fill-palette-color="quaternary"></rect><rect x="74.524" y="16.534" width="3.155" height="1.5" fill="#ede1d1" data-fill-palette-color="quaternary"></rect><rect x="86.599" y="16.534" width="3.902" height="1.5" fill="#ede1d1" data-fill-palette-color="quaternary"></rect><rect x="78.468" y="23.351" width="12.032" height="1.5" fill="#ede1d1" data-fill-palette-color="quaternary"></rect><rect x="27.419" y="23.351" width="3.902" height="1.5" fill="#ede1d1" data-fill-palette-color="quaternary"></rect><rect x="74.524" y="30.168" width="3.155" height="1.5" fill="#ede1d1" data-fill-palette-color="quaternary"></rect><rect x="86.599" y="30.168" width="3.902" height="1.5" fill="#ede1d1" data-fill-palette-color="quaternary"></rect><rect x="5.5" y="44.058" width="16.213" height="1.5" fill="#ede1d1" data-fill-palette-color="quaternary"></rect><rect x="68.973" y="44.058" width="4.251" height="1.5" fill="#ede1d1" data-fill-palette-color="quaternary"></rect><rect x="85.243" y="44.058" width="5.258" height="1.5" fill="#ede1d1" data-fill-palette-color="quaternary"></rect><rect x="74.287" y="53.244" width="16.213" height="1.5" fill="#ede1d1" data-fill-palette-color="quaternary"></rect><rect x="22.776" y="53.244" width="4.252" height="1.5" fill="#ede1d1" data-fill-palette-color="quaternary"></rect><rect x="5.5" y="53.244" width="5.258" height="1.5" fill="#ede1d1" data-fill-palette-color="quaternary"></rect><rect x="85.243" y="62.43" width="5.258" height="1.5" fill="#ede1d1" data-fill-palette-color="quaternary"></rect><path d="M76.094 61.324C76.094 57.351 70.038 54.869 64.196 53.397V53.244H63.579C59.547 52.273 55.723 51.778 54.192 51.604L52.528 46.339C53.153 46.119 53.761 45.862 54.341 45.558H55.946V44.567C59.437 42.076 61.725 38.003 61.725 33.398 61.725 32.811 61.676 32.236 61.604 31.669H64.856V30.169H61.325A13.7 13.7 0 0 0 58.72 24.852H70.977V23.352H57.321C54.87 21.076 51.6 19.672 48 19.672 41.546 19.672 36.132 24.156 34.674 30.168H27.419V31.668H34.396A14 14 0 0 0 34.275 33.397C34.275 37.698 36.267 41.539 39.373 44.057H31.804V45.557H41.659A14 14 0 0 0 43.456 46.332L41.791 51.603C37.974 52.037 19.888 54.457 19.888 61.323 19.888 61.674 19.877 62.045 19.859 62.428H5.5V63.928H19.755C19.221 69.877 17.222 78.118 16.671 80.317H4.75V86.048H91.25V80.317H79.313C78.674 77.774 76.094 67.134 76.094 61.324M64.88 80.319H31.12V63.581A2.64 2.64 0 0 1 33.755 60.946H62.244A2.64 2.64 0 0 1 64.879 63.581z" fill="#ede1d1" data-fill-palette-color="quaternary"></path></svg></g></svg></g></svg></g></svg></g></svg></g><defs></defs></svg><rect width="395.52" height="131.81988226471995" fill="none" stroke="none" visibility="hidden"></rect></g></svg></g></svg>